<svg width="22" height="22" viewBox="0 0 22 22" fill="none" xmlns="http://www.w3.org/2000/svg">
<path d="M10.0819 8.70833C10.0819 9.72088 9.5484 10.5417 8.89027 10.5417C8.23214 10.5417 7.69861 9.72088 7.69861 8.70833C7.69861 7.69581 8.23214 6.875 8.89027 6.875C9.5484 6.875 10.0819 7.69581 10.0819 8.70833Z" fill="black"/>
<path d="M13.1083 10.5417C13.7664 10.5417 14.3 9.72086 14.3 8.70833C14.3 7.69581 13.7664 6.875 13.1083 6.875C12.4502 6.875 11.9166 7.69581 11.9166 8.70833C11.9166 9.72086 12.4502 10.5417 13.1083 10.5417Z" fill="black"/>
<path d="M6.81269 18.2634L4.62152 18.9584C3.92172 19.1803 3.2506 18.528 3.4165 17.8128C4.07992 14.9527 4.3088 12.1023 4.36624 9.20438C4.43902 5.53231 7.3273 2.52087 11.0001 2.52087C14.6729 2.52087 17.5613 5.5323 17.634 9.20438C17.6914 12.1023 17.9203 14.9527 18.5838 17.8128C18.7496 18.528 18.0785 19.1803 17.3788 18.9584L15.1876 18.2634C14.7849 18.1357 14.3505 18.151 13.9578 18.3067L11.3379 19.3453C11.1209 19.4314 10.8793 19.4314 10.6623 19.3453L8.04254 18.3067C7.64982 18.151 7.21538 18.1357 6.81269 18.2634Z" stroke="black" stroke-width="2"/>
</svg>
